<?xml version="1.0" encoding="UTF-8" standalone="no"?>
<svg
   xmlns:dc="http://purl.org/dc/elements/1.1/"
   xmlns:cc="http://creativecommons.org/ns#"
   xmlns:rdf="http://www.w3.org/1999/02/22-rdf-syntax-ns#"
   xmlns:svg="http://www.w3.org/2000/svg"
   xmlns="http://www.w3.org/2000/svg"
   xmlns:sodipodi="http://sodipodi.sourceforge.net/DTD/sodipodi-0.dtd"
   xmlns:inkscape="http://www.inkscape.org/namespaces/inkscape"
   viewBox="0 0 64 64"
   version="1.1"
   x="0px"
   y="0px"
   id="svg18"
   sodipodi:docname="back.svg"
   width="64"
   height="64"
   inkscape:version="0.92.3 (unknown)">
  <metadata
     id="metadata24">
    <rdf:RDF>
      <cc:Work
         rdf:about="">
        <dc:format>image/svg+xml</dc:format>
        <dc:type
           rdf:resource="http://purl.org/dc/dcmitype/StillImage" />
        <dc:title>Download s7.3</dc:title>
      </cc:Work>
    </rdf:RDF>
  </metadata>
  <defs
     id="defs22" />
  <sodipodi:namedview
     pagecolor="#ffffff"
     bordercolor="#666666"
     borderopacity="1"
     objecttolerance="10"
     gridtolerance="10"
     guidetolerance="10"
     inkscape:pageopacity="0"
     inkscape:pageshadow="2"
     inkscape:window-width="1714"
     inkscape:window-height="932"
     id="namedview20"
     showgrid="false"
     inkscape:zoom="1.888"
     inkscape:cx="50"
     inkscape:cy="62.5"
     inkscape:window-x="1098"
     inkscape:window-y="269"
     inkscape:window-maximized="0"
     inkscape:current-layer="svg18" />
  <title
     id="title2">Download s7.3</title>
  <desc
     id="desc4">Created with Sketch.</desc>
  <g
     transform="rotate(90,50,32)"
     id="g12"
     style="fill:none;fill-rule:evenodd;stroke:none;stroke-width:1">
    <g
       id="g10">
      <path
         d="m 51.717847,34.732534 c -0.968607,-0.980992 -2.538675,-0.977049 -3.511914,0.01397 L 36.620957,46.543136 c -1.882231,1.886155 0.940117,4.714387 2.822348,2.828233 l 7.860277,-7.883403 c 0.386915,-0.388053 0.70057,-0.251809 0.70057,0.298501 v 21.750096 c 0,1.107292 0.885956,2.00493 1.996003,2.00493 v 0 c 1.102363,0 1.996004,-0.89571 1.996004,-2.00493 V 41.786467 c 0,-0.55291 0.314838,-0.685368 0.70057,-0.298501 l 7.860277,7.883403 c 1.881233,1.886154 4.704579,-0.942078 2.822348,-2.828233 z"
         transform="rotate(-180,50.000093,49.770746)"
         id="path6"
         inkscape:connector-curvature="0"
         style="fill:#000000" />
      <circle
         transform="rotate(-180,50,50)"
         cx="50"
         cy="50"
         r="30"
         id="circle8"
         style="stroke:#000000;stroke-width:4" />
    </g>
  </g>
</svg>
