<?xml version="1.0" encoding="UTF-8" standalone="no"?>
<svg
   xmlns:dc="http://purl.org/dc/elements/1.1/"
   xmlns:cc="http://creativecommons.org/ns#"
   xmlns:rdf="http://www.w3.org/1999/02/22-rdf-syntax-ns#"
   xmlns:svg="http://www.w3.org/2000/svg"
   xmlns="http://www.w3.org/2000/svg"
   xmlns:sodipodi="http://sodipodi.sourceforge.net/DTD/sodipodi-0.dtd"
   xmlns:inkscape="http://www.inkscape.org/namespaces/inkscape"
   version="1.1"
   x="0px"
   y="0px"
   viewBox="0 0 88 88"
   id="svg10"
   sodipodi:docname="close.svg"
   width="88"
   height="88"
   inkscape:version="0.92.3 (unknown)">
  <metadata
     id="metadata16">
    <rdf:RDF>
      <cc:Work
         rdf:about="">
        <dc:format>image/svg+xml</dc:format>
        <dc:type
           rdf:resource="http://purl.org/dc/dcmitype/StillImage" />
        <dc:title></dc:title>
      </cc:Work>
    </rdf:RDF>
  </metadata>
  <defs
     id="defs14" />
  <sodipodi:namedview
     pagecolor="#ffffff"
     bordercolor="#666666"
     borderopacity="1"
     objecttolerance="10"
     gridtolerance="10"
     guidetolerance="10"
     inkscape:pageopacity="0"
     inkscape:pageshadow="2"
     inkscape:window-width="1072"
     inkscape:window-height="653"
     id="namedview12"
     showgrid="false"
     inkscape:zoom="1.888"
     inkscape:cx="50"
     inkscape:cy="62.5"
     inkscape:window-x="57"
     inkscape:window-y="24"
     inkscape:window-maximized="0"
     inkscape:current-layer="svg10" />
  <g
     transform="translate(-6,-958.36218)"
     id="g4">
    <path
       style="color:#000000;font-style:normal;font-variant:normal;font-weight:normal;font-stretch:normal;font-size:medium;line-height:normal;font-family:Sans;-inkscape-font-specification:Sans;text-indent:0;text-align:start;text-decoration:none;text-decoration-line:none;letter-spacing:normal;word-spacing:normal;text-transform:none;writing-mode:lr-tb;direction:ltr;baseline-shift:baseline;text-anchor:start;display:inline;overflow:visible;visibility:visible;opacity:1;fill:#000000;fill-opacity:1;stroke:none;stroke-width:2.38095236;marker:none;enable-background:accumulate"
       d="M 50,6 C 25.72316,6 6,25.72314 6,50 6,74.2768 25.72316,94 50,94 74.27684,94 94,74.2768 94,50 94,25.72314 74.27684,6 50,6 Z m 0,4 C 72.11508,10 90,27.8849 90,50 90,72.1151 72.11508,90 50,90 27.88492,90 10,72.1151 10,50 10,27.8849 27.88492,10 50,10 Z M 32.78125,30.96875 a 2.0002,2.0002 0 0 0 -1.1875,3.4375 L 47.1875,50 31.59375,65.5625 a 2.0002,2.0002 0 1 0 2.8125,2.84375 L 50,52.8125 65.59375,68.40625 a 2.0002,2.0002 0 1 0 2.8125,-2.84375 L 52.8125,50 68.40625,34.40625 A 2.0002,2.0002 0 0 0 66.75,30.96875 2.0002,2.0002 0 0 0 65.59375,31.5625 L 50,47.15625 34.40625,31.5625 a 2.0002,2.0002 0 0 0 -1.625,-0.59375 z"
       transform="translate(0,952.36218)"
       id="path2"
       inkscape:connector-curvature="0" />
  </g>
</svg>
