<?xml version="1.0" encoding="UTF-8" standalone="no"?>
<svg
   xmlns:dc="http://purl.org/dc/elements/1.1/"
   xmlns:cc="http://creativecommons.org/ns#"
   xmlns:rdf="http://www.w3.org/1999/02/22-rdf-syntax-ns#"
   xmlns:svg="http://www.w3.org/2000/svg"
   xmlns="http://www.w3.org/2000/svg"
   xmlns:sodipodi="http://sodipodi.sourceforge.net/DTD/sodipodi-0.dtd"
   xmlns:inkscape="http://www.inkscape.org/namespaces/inkscape"
   version="1.1"
   x="0px"
   y="0px"
   viewBox="0 0 87.574997 94"
   xml:space="preserve"
   id="svg12"
   sodipodi:docname="copy.svg"
   width="87.574997"
   height="94"
   inkscape:version="0.92.3 (unknown)"><metadata
     id="metadata18"><rdf:RDF><cc:Work
         rdf:about=""><dc:format>image/svg+xml</dc:format><dc:type
           rdf:resource="http://purl.org/dc/dcmitype/StillImage" /><dc:title></dc:title></cc:Work></rdf:RDF></metadata><defs
     id="defs16" /><sodipodi:namedview
     pagecolor="#ffffff"
     bordercolor="#666666"
     borderopacity="1"
     objecttolerance="10"
     gridtolerance="10"
     guidetolerance="10"
     inkscape:pageopacity="0"
     inkscape:pageshadow="2"
     inkscape:window-width="1539"
     inkscape:window-height="1022"
     id="namedview14"
     showgrid="false"
     inkscape:zoom="1.888"
     inkscape:cx="50"
     inkscape:cy="62.5"
     inkscape:window-x="47"
     inkscape:window-y="24"
     inkscape:window-maximized="0"
     inkscape:current-layer="svg12" /><g
     id="g6"
     transform="translate(-6.212,-2.999)"
     style="fill:#444444;fill-opacity:1"><path
       d="M 83.149,22.063 H 35.688 c -5.865,0 -10.635,4.771 -10.635,10.636 v 53.663 c 0,5.865 4.77,10.637 10.635,10.637 H 83.15 c 5.865,0 10.637,-4.771 10.637,-10.637 V 32.699 C 93.786,26.834 89.015,22.063 83.149,22.063 Z m 6.162,64.298 c 0,3.396 -2.765,6.16 -6.161,6.16 H 35.688 c -3.396,0 -6.159,-2.764 -6.159,-6.16 V 32.699 c 0,-3.396 2.763,-6.16 6.159,-6.16 H 83.15 c 3.396,0 6.161,2.763 6.161,6.16 z"
       id="path2"
       inkscape:connector-curvature="0"
       style="fill:#444444;fill-opacity:1" /><path
       d="m 16.852,73.464 c -3.398,0 -6.163,-2.764 -6.163,-6.16 V 13.641 c 0,-3.398 2.765,-6.163 6.163,-6.163 h 47.46 c 3.396,0 6.16,2.765 6.16,6.163 0,1.236 1.003,2.238 2.238,2.238 1.236,0 2.238,-1.002 2.238,-2.238 0,-5.866 -4.771,-10.639 -10.637,-10.639 h -47.46 c -5.867,0 -10.639,4.773 -10.639,10.639 v 53.663 c 0,5.865 4.771,10.637 10.639,10.637 1.236,0 2.238,-1.003 2.238,-2.238 0,-1.235 -1.001,-2.239 -2.237,-2.239 z"
       id="path4"
       inkscape:connector-curvature="0"
       style="fill:#444444;fill-opacity:1" /></g></svg>