<?xml version="1.0" encoding="UTF-8" standalone="no"?>
<svg
   xmlns:dc="http://purl.org/dc/elements/1.1/"
   xmlns:cc="http://creativecommons.org/ns#"
   xmlns:rdf="http://www.w3.org/1999/02/22-rdf-syntax-ns#"
   xmlns:svg="http://www.w3.org/2000/svg"
   xmlns="http://www.w3.org/2000/svg"
   xmlns:sodipodi="http://sodipodi.sourceforge.net/DTD/sodipodi-0.dtd"
   xmlns:inkscape="http://www.inkscape.org/namespaces/inkscape"
   version="1.1"
   x="0px"
   y="0px"
   viewBox="0 0 66 66"
   enable-background="new 0 0 100 100"
   xml:space="preserve"
   id="svg20"
   sodipodi:docname="openLink_dark_grey.svg"
   width="66"
   height="66"
   inkscape:version="0.92.3 (unknown)"><metadata
     id="metadata26"><rdf:RDF><cc:Work
         rdf:about=""><dc:format>image/svg+xml</dc:format><dc:type
           rdf:resource="http://purl.org/dc/dcmitype/StillImage" /><dc:title></dc:title></cc:Work></rdf:RDF></metadata><defs
     id="defs24" /><sodipodi:namedview
     pagecolor="#ffffff"
     bordercolor="#666666"
     borderopacity="1"
     objecttolerance="10"
     gridtolerance="10"
     guidetolerance="10"
     inkscape:pageopacity="0"
     inkscape:pageshadow="2"
     inkscape:window-width="1155"
     inkscape:window-height="660"
     id="namedview22"
     showgrid="false"
     inkscape:zoom="1.888"
     inkscape:cx="50"
     inkscape:cy="62.5"
     inkscape:window-x="953"
     inkscape:window-y="430"
     inkscape:window-maximized="0"
     inkscape:current-layer="svg20" /><g
     display="none"
     id="g10"
     style="display:none"
     transform="translate(0,-59)"><polyline
       display="inline"
       stroke-miterlimit="10"
       points="60,17 85,17 85,42  "
       id="polyline2"
       style="display:inline;fill:#000000;stroke:#e00c02;stroke-width:4;stroke-miterlimit:10" /><line
       display="inline"
       stroke-miterlimit="10"
       x1="47"
       y1="55"
       x2="85"
       y2="17"
       id="line4"
       style="display:inline;fill:#000000;stroke:#e00c02;stroke-width:4;stroke-miterlimit:10" /><g
       display="inline"
       id="g8"
       style="display:inline"><path
         stroke-miterlimit="10"
         d="m 77,44 v 32 c 0,1.65 -1.35,3 -3,3 H 26 c -1.65,0 -3,-1.35 -3,-3 V 28 c 0,-1.65 1.35,-3 3,-3 h 32"
         id="path6"
         inkscape:connector-curvature="0"
         style="fill:#000000;stroke:#e00c02;stroke-width:4;stroke-miterlimit:10" /></g></g><g
     id="g14"
     transform="translate(-21,-15)"
     style="stroke:#444444;stroke-opacity:1"><path
       d="M 87,15 V 42 H 83 V 21.828 L 48.414,56.414 45.586,53.586 80.172,19 H 60 V 15 Z M 75,76 c 0,0.542 -0.458,1 -1,1 H 26 c -0.542,0 -1,-0.458 -1,-1 V 28 c 0,-0.542 0.458,-1 1,-1 H 58 V 23 H 26 c -2.757,0 -5,2.243 -5,5 v 48 c 0,2.757 2.243,5 5,5 h 48 c 2.757,0 5,-2.243 5,-5 V 44 h -4 z"
       id="path12"
       inkscape:connector-curvature="0"
       style="stroke:#444444;stroke-opacity:1" /></g></svg>