<?xml version="1.0" encoding="UTF-8" standalone="no"?>
<svg
   xmlns:dc="http://purl.org/dc/elements/1.1/"
   xmlns:cc="http://creativecommons.org/ns#"
   xmlns:rdf="http://www.w3.org/1999/02/22-rdf-syntax-ns#"
   xmlns:svg="http://www.w3.org/2000/svg"
   xmlns="http://www.w3.org/2000/svg"
   xmlns:sodipodi="http://sodipodi.sourceforge.net/DTD/sodipodi-0.dtd"
   xmlns:inkscape="http://www.inkscape.org/namespaces/inkscape"
   version="1.1"
   x="0px"
   y="0px"
   viewBox="0 0 250 250"
   xml:space="preserve"
   id="svg8"
   sodipodi:docname="search.svg"
   width="250"
   height="250"
   inkscape:version="0.92.3 (unknown)"><metadata
     id="metadata14"><rdf:RDF><cc:Work
         rdf:about=""><dc:format>image/svg+xml</dc:format><dc:type
           rdf:resource="http://purl.org/dc/dcmitype/StillImage" /><dc:title></dc:title></cc:Work></rdf:RDF></metadata><defs
     id="defs12" /><sodipodi:namedview
     pagecolor="#ffffff"
     bordercolor="#666666"
     borderopacity="1"
     objecttolerance="10"
     gridtolerance="10"
     guidetolerance="10"
     inkscape:pageopacity="0"
     inkscape:pageshadow="2"
     inkscape:window-width="1637"
     inkscape:window-height="913"
     id="namedview10"
     showgrid="false"
     inkscape:zoom="0.72615385"
     inkscape:cx="130"
     inkscape:cy="162.5"
     inkscape:window-x="47"
     inkscape:window-y="24"
     inkscape:window-maximized="0"
     inkscape:current-layer="svg8" /><path
     d="m 247,232.8 -68.2,-67.3 c 14.4,-17.4 23,-39.8 23,-64.2 C 201.8,45.6 156.6,0.4 100.9,0.4 45.2,0.4 0,45.6 0,101.3 0,157 45.2,202.2 100.9,202.2 c 24.2,0 46.3,-8.5 63.7,-22.6 l 68.4,67.5 c 1.9,1.9 4.5,2.9 7,2.9 2.6,0 5.2,-1 7.1,-3 3.9,-4 3.9,-10.3 -0.1,-14.2 z M 20,101.3 c 0,-44.6 36.3,-80.9 80.9,-80.9 44.6,0 80.9,36.3 80.9,80.9 0,44.6 -36.3,80.9 -80.9,80.9 C 56.3,182.2 20,145.9 20,101.3 Z"
     id="path2"
     inkscape:connector-curvature="0" /></svg>