<?xml version="1.0" encoding="UTF-8" standalone="no"?>
<svg
   xmlns:dc="http://purl.org/dc/elements/1.1/"
   xmlns:cc="http://creativecommons.org/ns#"
   xmlns:rdf="http://www.w3.org/1999/02/22-rdf-syntax-ns#"
   xmlns:svg="http://www.w3.org/2000/svg"
   xmlns="http://www.w3.org/2000/svg"
   xmlns:sodipodi="http://sodipodi.sourceforge.net/DTD/sodipodi-0.dtd"
   xmlns:inkscape="http://www.inkscape.org/namespaces/inkscape"
   version="1.1"
   x="0px"
   y="0px"
   viewBox="0 0 86 86"
   id="svg10"
   sodipodi:docname="settings.svg"
   width="86"
   height="86"
   inkscape:version="0.92.3 (unknown)">
  <metadata
     id="metadata16">
    <rdf:RDF>
      <cc:Work
         rdf:about="">
        <dc:format>image/svg+xml</dc:format>
        <dc:type
           rdf:resource="http://purl.org/dc/dcmitype/StillImage" />
        <dc:title></dc:title>
      </cc:Work>
    </rdf:RDF>
  </metadata>
  <defs
     id="defs14" />
  <sodipodi:namedview
     pagecolor="#ffffff"
     bordercolor="#666666"
     borderopacity="1"
     objecttolerance="10"
     gridtolerance="10"
     guidetolerance="10"
     inkscape:pageopacity="0"
     inkscape:pageshadow="2"
     inkscape:window-width="1167"
     inkscape:window-height="800"
     id="namedview12"
     showgrid="false"
     inkscape:zoom="1.888"
     inkscape:cx="50"
     inkscape:cy="62.5"
     inkscape:window-x="47"
     inkscape:window-y="24"
     inkscape:window-maximized="0"
     inkscape:current-layer="svg10" />
  <g
     transform="translate(-7.0000001,-959.3622)"
     id="g4">
    <path
       style="color:#000000;text-indent:0;text-transform:none;direction:ltr;baseline-shift:baseline;display:inline;overflow:visible;visibility:visible;fill:#000000;fill-opacity:1;stroke:none;enable-background:accumulate"
       d="m 44,959.36219 c -2.7527,0 -5,2.2473 -5,5 v 4.8125 c -1.61437,0.53142 -3.18012,1.18306 -4.6875,1.9375 l -3.40625,-3.40625 c -1.94636,-1.94636 -5.14739,-1.94636 -7.09375,0 l -8.46875,8.46875 c -1.94636,1.94636 -1.94636,5.11614 0,7.06249 l 3.4375,3.4375 c -0.75809,1.5149 -1.43582,3.0646 -1.96875,4.6875 H 12 c -2.7526999,0 -4.9999999,2.2473 -4.9999999,5 v 12.00002 c 0,2.7527 2.2473,5 4.9999999,5 h 4.84375 c 0.52966,1.6075 1.15541,3.1861 1.90625,4.6875 l -3.40625,3.4062 c -1.94636,1.9464 -1.94636,5.1162 0,7.0625 l 8.46875,8.4688 c 1.94636,1.9463 5.14739,1.9463 7.09375,0 l 3.40625,-3.4063 c 1.50737,0.7545 3.07312,1.4061 4.6875,1.9375 v 4.8438 c 0,2.7527 2.2473,5 5,5 h 12 c 2.7527,0 5,-2.2473 5,-5 v -4.8438 c 1.60555,-0.5315 3.15959,-1.1867 4.65625,-1.9375 l 3.40625,3.4063 c 1.94636,1.9463 5.14739,1.9463 7.09375,0 l 8.5,-8.4688 c 1.94636,-1.9463 1.94636,-5.1161 0,-7.0625 l -3.4375,-3.4375 c 0.74962,-1.4862 1.40095,-3.0506 1.9375,-4.6562 H 88 c 2.7527,0 5,-2.2473 5,-5 v -12.00002 c 0,-2.7527 -2.2473,-5 -5,-5 h -4.8125 c -0.54144,-1.6266 -1.2088,-3.1832 -1.96875,-4.6875 l 3.4375,-3.4375 c 1.94636,-1.94635 1.94636,-5.11613 0,-7.06249 l -8.5,-8.46875 c -1.94636,-1.94636 -5.14739,-1.94636 -7.09375,0 l -3.40625,3.40625 C 64.15958,970.36144 62.60554,969.70623 61,969.17469 v -4.8125 c 0,-2.7527 -2.2473,-5 -5,-5 z m 0,2 h 12 c 1.67928,0 3,1.32072 3,3 v 5.5 a 1.0001,1.0001 0 0 0 0.71875,0.9375 c 2.00276,0.61646 3.90514,1.41189 5.71875,2.375 a 1.0001,1.0001 0 0 0 1.1875,-0.1875 l 3.875,-3.875 c 1.18752,-1.18752 3.03123,-1.18752 4.21875,0 l 8.5,8.46875 c 1.18752,1.18752 1.18752,3.06248 0,4.25004 l -3.90625,3.9062 a 1.0001,1.0001 0 0 0 -0.15625,1.1875 c 0.96659,1.8238 1.76334,3.7255 2.375,5.7188 A 1.0001,1.0001 0 0 0 82.5,993.36218 H 88 c 1.67928,0 3,1.3207 3,3 v 12.00002 c 0,1.6793 -1.32072,3 -3,3 h -5.5 a 1.0001,1.0001 0 0 0 -0.96875,0.6875 c -0.61166,1.9932 -1.40841,3.9262 -2.375,5.75 a 1.0001,1.0001 0 0 0 0.15625,1.1562 l 3.90625,3.9063 c 1.18752,1.1875 1.18752,3.0625 0,4.25 l -8.5,8.4687 c -1.18752,1.1876 -3.03123,1.1876 -4.21875,0 l -3.875,-3.875 a 1.0001,1.0001 0 0 0 -1.1875,-0.1875 c -1.81361,0.9631 -3.716,1.7586 -5.71875,2.375 A 1.0001,1.0001 0 0 0 59,1034.8622 v 5.5 c 0,1.6793 -1.32072,3 -3,3 H 44 c -1.67928,0 -3,-1.3207 -3,-3 v -5.5 a 1.0001,1.0001 0 0 0 -0.71875,-0.9688 c -2.01477,-0.6183 -3.93111,-1.4091 -5.75,-2.375 a 1.0001,1.0001 0 0 0 -1.1875,0.1875 l -3.875,3.875 c -1.18752,1.1876 -3.03123,1.1876 -4.21875,0 l -8.46875,-8.4687 c -1.18752,-1.1875 -1.18752,-3.0625 0,-4.25 l 3.875,-3.875 a 1.0001,1.0001 0 0 0 0.15625,-1.1563 c -0.96591,-1.8188 -1.72542,-3.7664 -2.34375,-5.7812 A 1.0001,1.0001 0 0 0 17.5,1011.3622 H 12 c -1.67928,0 -2.9999999,-1.3207 -2.9999999,-3 v -12.00003 c 0,-1.6793 1.3207199,-3 2.9999999,-3 h 5.5 a 1.0001,1.0001 0 0 0 0.96875,-0.7187 c 0.61833,-2.0148 1.37784,-3.9311 2.34375,-5.75 a 1.0001,1.0001 0 0 0 -0.15625,-1.1875 l -3.875,-3.875 c -1.18752,-1.18756 -1.18752,-3.06251 0,-4.25004 L 25.25,969.11219 c 1.18752,-1.18752 3.03123,-1.18752 4.21875,0 l 3.875,3.875 a 1.0001,1.0001 0 0 0 1.1875,0.1875 c 1.81888,-0.96592 3.73522,-1.75667 5.75,-2.375 A 1.0001,1.0001 0 0 0 41,969.86219 v -5.5 c 0,-1.67928 1.32072,-3 3,-3 z m 6,20 c -11.58613,0 -21,9.41379 -21,21.00001 0,11.5861 9.41387,21 21,21 11.58614,0 21,-9.4139 21,-21 0,-11.58622 -9.41386,-21.00001 -21,-21.00001 z m 0,1.99999 c 10.50526,0 19,8.4946 19,19.00002 0,10.5052 -8.49474,19 -19,19 -10.50525,0 -19,-8.4948 -19,-19 0,-10.50542 8.49475,-19.00002 19,-19.00002 z"
       marker="none"
       visibility="visible"
       display="inline"
       overflow="visible"
       id="path2"
       inkscape:connector-curvature="0" />
  </g>
</svg>
